<svg xmlns="http://www.w3.org/2000/svg" width="131.276" height="135.714" viewBox="0 0 131.276 135.714">
  <path id="Exclusion_1" data-name="Exclusion 1" d="M-2739.652-201.765a14.667,14.667,0,0,1-11.627-5.651,14.669,14.669,0,0,0-11.629-5.652,14.813,14.813,0,0,0-4.092.577,14.9,14.9,0,0,1-4.116.585,14.719,14.719,0,0,1-10.131-4.04,14.486,14.486,0,0,1-4.567-10.124v-.026a14.572,14.572,0,0,0-9.707-13.282l-.02-.007a14.586,14.586,0,0,1-8.994-9.237,14.465,14.465,0,0,1,1.809-12.726l.035-.052a14.491,14.491,0,0,0,0-16.4l-.034-.05a14.465,14.465,0,0,1-1.807-12.722,14.584,14.584,0,0,1,8.988-9.236l.057-.021a14.576,14.576,0,0,0,9.7-13.27l0-.063a14.486,14.486,0,0,1,4.57-10.117,14.721,14.721,0,0,1,10.127-4.037,14.9,14.9,0,0,1,4.108.582l.021.006a14.806,14.806,0,0,0,4.084.575,14.67,14.67,0,0,0,11.627-5.65l.016-.021a14.668,14.668,0,0,1,11.626-5.65,14.668,14.668,0,0,1,11.627,5.651,14.667,14.667,0,0,0,11.628,5.652,14.813,14.813,0,0,0,4.092-.577,14.9,14.9,0,0,1,4.116-.585,14.72,14.72,0,0,1,10.131,4.04,14.485,14.485,0,0,1,4.567,10.124v.026a14.574,14.574,0,0,0,9.708,13.282l.02.007a14.584,14.584,0,0,1,8.994,9.237,14.464,14.464,0,0,1-1.809,12.726l-.036.053a14.491,14.491,0,0,0,0,16.4l.034.05a14.464,14.464,0,0,1,1.808,12.722,14.585,14.585,0,0,1-8.987,9.236l-.057.021a14.576,14.576,0,0,0-9.7,13.27l0,.063a14.485,14.485,0,0,1-4.57,10.117,14.723,14.723,0,0,1-10.127,4.038,14.9,14.9,0,0,1-4.108-.582l-.021-.006a14.815,14.815,0,0,0-4.084-.575,14.668,14.668,0,0,0-11.626,5.65l-.017.021A14.668,14.668,0,0,1-2739.652-201.765Zm-24.929-67.273h0l-7.577,7.528,19.744,19.619,44.626-44.342-7.576-7.528-37.05,36.814-12.167-12.091Z" transform="translate(2805.266 337.479)" fill="#7b00db"/>
</svg>
